<?xml version="1.0" encoding="utf-8"?>
<!-- Generator: Adobe Illustrator 23.0.3, SVG Export Plug-In . SVG Version: 6.00 Build 0)  -->
<svg version="1.1" xmlns="http://www.w3.org/2000/svg" xmlns:xlink="http://www.w3.org/1999/xlink" x="0px" y="0px"
	 viewBox="0 0 360 640" style="enable-background:new 0 0 360 640;" xml:space="preserve">
<style type="text/css">
	.st0{fill:none;}
	.st1{fill:#FFFFFF;}
</style>
<g id="Warstwa_1">
</g>
<g id="Warstwa_3">
</g>
<g id="Warstwa_2">
	<path class="st0" d="M240.2,256.6c-2.7,0-4.9,1-6.6,2.9c-1.7,1.9-2.5,5.1-2.5,9.6c0,4.4,0.8,7.6,2.5,9.6s3.9,2.9,6.7,2.9
		c2.9,0,5.2-0.9,6.8-2.8s2.4-5.3,2.4-10.2c0-4.1-0.8-7.2-2.5-9.1C245.3,257.6,243,256.6,240.2,256.6z"/>
	<path class="st1" d="M48.9,257.1h-3.4v24h3.3c2.8,0,4.9-0.3,6.1-0.9c1.2-0.6,2.1-1.7,2.8-3.3c0.7-1.6,1-4.1,1-7.6
		c0-4.7-0.8-7.8-2.3-9.6C54.9,257.9,52.4,257.1,48.9,257.1z"/>
	<path class="st1" d="M173.8,308.9h-6v8.9h5.7c0.6,0,1.8-0.2,3.6-0.6c0.9-0.2,1.6-0.6,2.2-1.4c0.6-0.7,0.9-1.6,0.9-2.5
		c0-1.4-0.4-2.5-1.3-3.3C178,309.3,176.3,308.9,173.8,308.9z"/>
	<path class="st1" d="M200,300.1v-9h-4.1v-43.9h4.1V0H0v640h200V307.9l-5.3-7.9H200z M148,247.1h41.3V258h-13.8V291h-13.6V258H148
		V247.1z M80,247.1h13.6V291H80V247.1z M31.9,291v-43.9h20.2c4,0,7.2,0.5,9.6,1.6s4.5,2.6,6.1,4.6s2.8,4.4,3.5,7
		c0.7,2.7,1.1,5.5,1.1,8.5c0,4.7-0.5,8.3-1.6,10.9c-1.1,2.6-2.6,4.8-4.4,6.5c-1.9,1.7-3.9,2.9-6.1,3.5c-3,0.8-5.7,1.2-8.1,1.2H31.9z
		 M97.9,344H85.1l-16.4-24.1V344H55.9v-43.9h12.7l16.5,24.3v-24.3h12.8V344z M107.5,252.2c3.9-3.9,9.3-5.9,16.4-5.9
		c5.5,0,9.9,1.1,13,3.4c3.2,2.2,5.5,5.7,7.1,10.3l-12,2.7c-0.4-1.3-0.9-2.3-1.3-2.9c-0.8-1-1.7-1.8-2.8-2.4
		c-1.1-0.6-2.3-0.8-3.7-0.8c-3.1,0-5.4,1.2-7.1,3.7c-1.2,1.8-1.9,4.7-1.9,8.6c0,4.9,0.7,8.2,2.2,10c1.5,1.8,3.6,2.7,6.2,2.7
		c2.6,0,4.6-0.7,5.9-2.2c1.3-1.5,2.3-3.6,2.9-6.4l11.9,3.6c-0.8,3.3-2.1,6.1-3.8,8.4c-1.7,2.2-3.8,3.9-6.4,5.1s-5.8,1.7-9.7,1.7
		c-4.8,0-8.7-0.7-11.7-2.1c-3-1.4-5.6-3.8-7.8-7.3c-2.2-3.5-3.3-8-3.3-13.4C101.7,261.7,103.7,256.1,107.5,252.2z M135.5,344
		l-2.2-7.2h-15.4l-2.1,7.2h-13.9l16.5-43.9h14.8l16.5,43.9H135.5z M197.5,344h-15.3l-7.3-13.4c-0.9-1.7-1.7-2.9-2.5-3.4
		c-1-0.7-2.1-1-3.3-1h-1.2V344h-13.6v-43.9h22.6c4.2,0,7.4,0.4,9.6,1.1s4,2.1,5.4,4c1.4,1.9,2,4.3,2,7.1c0,2.4-0.5,4.5-1.6,6.3
		c-1,1.8-2.5,3.2-4.3,4.3c-1.2,0.7-2.7,1.3-4.8,1.7c1.6,0.5,2.8,1.1,3.5,1.6c0.5,0.4,1.2,1.1,2.2,2.3c0.9,1.2,1.6,2.1,1.9,2.7
		L197.5,344z"/>
	<polygon class="st1" points="120.9,327.3 130.5,327.3 125.7,311.5 	"/>
	<rect x="200" y="247.1" class="st1" width="9.5" height="43.9"/>
	<path class="st1" d="M257.1,252.3c-4-3.9-9.6-5.9-16.9-5.9c-7.1,0-12.7,2-16.7,6c-4,4-6,9.6-6,16.7c0,5.1,1,9.4,3,12.8
		c2,3.4,4.6,5.9,7.9,7.5c3.2,1.6,7.3,2.4,12.3,2.4c4.9,0,8.9-0.9,12.2-2.7c3.3-1.8,5.8-4.4,7.5-7.7c1.7-3.3,2.6-7.5,2.6-12.6
		C263,261.7,261.1,256.2,257.1,252.3z M247.1,278.8c-1.6,1.9-3.9,2.8-6.8,2.8c-2.8,0-5.1-1-6.7-2.9s-2.5-5.1-2.5-9.6
		c0-4.5,0.8-7.7,2.5-9.6c1.7-1.9,3.9-2.9,6.6-2.9c2.9,0,5.1,1,6.8,2.9c1.7,1.9,2.5,4.9,2.5,9.1C249.5,273.5,248.7,276.9,247.1,278.8
		z"/>
	<polygon class="st1" points="218.7,314.9 209.8,300.1 200,300.1 200,307.9 211.8,325.6 211.8,344 225.4,344 225.4,325.6 
		242.5,300.1 227.5,300.1 	"/>
</g>
<g id="Warstwa_4">
	<rect x="86.5" y="421.4" class="st0" width="95.3" height="32.1"/>
	<g>
		<path d="M87.6,363.1c0,0,0.1-0.1,0.1-0.2s0.1-0.2,0.1-0.3v-0.1c0,0,0,0,0,0s0,0-0.1,0h-0.3c-0.3,0.1-0.6,0.2-1,0.2s-0.8,0-1.1,0
			s-0.7,0-0.9-0.1s-0.4-0.1-0.5-0.2s0-0.2,0.3-0.3s0.6-0.2,1.3-0.3c0,0,0.1,0,0.2,0s0.3-0.1,0.4-0.1s0.3,0,0.4-0.1s0.2,0,0.2,0
			c0,0,0.1,0,0.3,0s0.3,0,0.5,0s0.3,0,0.5,0s0.2,0,0.3,0l0.1-0.1l1.4-2.3c0-0.1,0.1-0.1,0.3-0.2s0.2-0.1,0.3-0.1
			c0.2,0,0.3,0.1,0.3,0.2s0.1,0.2,0.1,0.4c0,0,0,0,0,0s0,0,0,0v0.1l-0.8,1.9v0.1c0-0.1,0.1-0.1,0.1-0.1s0.1,0,0.1,0
			c0.2,0,0.3,0.1,0.5,0.2s0.2,0.3,0.2,0.5c0,0.1,0,0.2-0.1,0.2s-0.1,0.1-0.2,0.1s-0.2,0.1-0.3,0.1s-0.2,0-0.2,0
			c-0.1,0-0.3,0-0.4-0.1s-0.3-0.1-0.4-0.1c-0.1,0-0.2,0.1-0.4,0.2s-0.2,0.3-0.3,0.5s-0.2,0.5-0.2,0.7s-0.1,0.5-0.2,0.8
			s-0.1,0.5-0.1,0.7s0,0.4,0,0.5c0,0,0,0.1,0,0.3s0,0.2,0,0.3c0,0.1,0,0.1,0.1,0.2s0.1,0.1,0.1,0.2h0.4c0.5,0,0.9-0.1,1.4-0.3
			s0.9-0.5,1.3-0.7c0,0,0.1-0.1,0.2-0.2s0.2-0.2,0.3-0.3s0.2-0.2,0.3-0.3s0.1-0.1,0.2-0.1c0.1,0,0.2,0,0.2,0.1s0.1,0.2,0.1,0.3
			c0,0.2-0.1,0.4-0.2,0.7s-0.4,0.4-0.6,0.6s-0.5,0.3-0.8,0.5s-0.6,0.3-0.9,0.4s-0.6,0.2-0.9,0.2s-0.5,0.1-0.7,0.1
			c-0.2,0-0.3,0-0.5-0.1s-0.3-0.1-0.5-0.2s-0.3-0.2-0.4-0.4s-0.1-0.3-0.1-0.5v-2L87.6,363.1z"/>
		<path d="M92.3,366.8c0-0.4,0-0.8,0.1-1.2s0.2-0.8,0.4-1.1c0.1-0.4,0.2-0.8,0.4-1.1s0.3-0.6,0.4-0.9s0.3-0.5,0.4-0.6
			s0.3-0.2,0.4-0.2s0.3,0,0.3,0.1s0.1,0.2,0.1,0.4v0.1l-0.9,2.1c0,0,0,0.1-0.1,0.1s-0.1,0.1-0.1,0.1v0.1c0,0.1-0.1,0.2-0.1,0.3
			s-0.1,0.3-0.1,0.4s-0.1,0.3-0.1,0.4s-0.1,0.2-0.1,0.3c0,0.1,0,0.2-0.1,0.3s0,0.2,0,0.2c0,0,0,0.1,0,0.1s0,0.1,0.1,0.1
			c0.4-0.2,0.9-0.4,1.4-0.8s1-0.8,1.5-1.2s0.9-0.9,1.3-1.4s0.6-1,0.8-1.4c0,0,0.1,0,0.2-0.1s0.2,0,0.2,0c0,0,0,0,0,0s0,0,0,0
			c0.1,0,0.2,0.1,0.3,0.2s0.1,0.2,0.1,0.3c0,0,0,0,0,0.1s0,0.1,0,0.1c-0.2,0.5-0.4,1-0.5,1.4s-0.2,0.9-0.2,1.5c0,0.2,0,0.4,0,0.5
			s0.1,0.3,0.1,0.6c0,0.1,0,0.1,0.1,0.1s0.1,0,0.1,0c0.4,0,0.7-0.1,1.1-0.4s0.7-0.6,1-1s0.5-0.8,0.7-1.2s0.3-0.8,0.3-1.1
			c0-0.2,0-0.3,0-0.5s0-0.3,0-0.5c0-0.2,0-0.3,0.1-0.4s0.2-0.2,0.4-0.2c0.1,0,0.2,0,0.3,0.1s0.2,0.1,0.3,0.2s0.2,0.2,0.3,0.2
			s0.2,0.1,0.3,0.2c0.3,0,0.5,0,0.7,0s0.3,0,0.4,0s0.2,0,0.2,0s0.1,0,0.2-0.1s0.2-0.1,0.3-0.2s0.3-0.2,0.6-0.3c0,0,0,0,0.1,0
			s0.1,0,0.1,0c0.1,0,0.2,0,0.3,0.1s0.1,0.2,0.1,0.3c0,0.1,0,0.2-0.1,0.3s-0.1,0.1-0.2,0.2s-0.2,0.1-0.3,0.1s-0.2,0.1-0.3,0.1
			c-0.3,0.1-0.5,0.2-0.6,0.2s-0.3,0.1-0.3,0.1s-0.1,0-0.2,0s-0.1,0-0.2,0s-0.2,0-0.4,0s-0.4,0-0.6,0c0,0-0.1,0-0.1,0s-0.1,0-0.1,0.1
			c-0.1,0.5-0.2,1.1-0.5,1.6s-0.6,1-1,1.5s-0.9,0.8-1.4,1.1s-1.1,0.4-1.6,0.4c-0.1,0-0.2,0-0.3-0.1s-0.2-0.2-0.3-0.3
			s-0.1-0.3-0.2-0.4s-0.1-0.2-0.1-0.3c0,0,0-0.1,0-0.3s0-0.3-0.1-0.4s0-0.3-0.1-0.4s0-0.2,0-0.3c-0.2,0.2-0.5,0.5-0.8,0.8
			s-0.7,0.6-1.1,0.9s-0.8,0.5-1.2,0.7s-0.8,0.3-1.1,0.3c-0.3,0-0.5-0.1-0.6-0.3S92.3,367,92.3,366.8z"/>
		<path d="M105.6,366.4c0,0,0-0.1,0-0.1s0-0.1,0-0.2s0-0.1,0-0.2s0-0.1,0-0.1v-0.1v-0.1l0.2-1.1c0.2-0.4,0.4-0.8,0.6-1.2
			s0.5-0.7,0.7-1s0.6-0.5,1-0.7s0.8-0.3,1.3-0.3c0.1,0,0.2,0,0.4,0.1s0.3,0.1,0.5,0.2s0.3,0.2,0.4,0.3s0.2,0.2,0.3,0.3
			c0.4-0.1,0.6-0.1,0.8-0.1s0.3,0,0.4,0s0.2,0,0.4-0.1s0.3-0.1,0.6-0.2c0.2-0.1,0.4-0.1,0.6-0.1c0.1,0,0.2,0,0.2,0.1
			s0.1,0.2,0.1,0.2c0,0.1,0,0.2-0.1,0.3s-0.2,0.2-0.3,0.2l-2.2,0.5l-0.2,0.1c0,0.6-0.2,1.2-0.4,1.8s-0.6,1.1-1.1,1.5s-1,0.8-1.5,1
			s-1.2,0.4-1.8,0.4c0,0-0.1,0-0.2,0s-0.2,0-0.2,0c-0.3-0.1-0.4-0.3-0.5-0.6S105.6,366.7,105.6,366.4z M106.7,366.8
			c0,0.1,0.1,0.1,0.1,0.1s0.1,0,0.2,0c0.4,0,0.9-0.1,1.3-0.3s0.8-0.5,1.2-0.8s0.7-0.7,0.9-1.2s0.3-0.9,0.3-1.3c-0.4,0-0.8,0-1.1-0.1
			s-0.7-0.1-1.1-0.1h0l-1.5,1.5c-0.1,0.1-0.1,0.2-0.2,0.3s-0.1,0.3-0.1,0.5s0,0.3-0.1,0.5s0,0.3,0,0.4c0,0,0,0.1,0,0.2
			S106.7,366.7,106.7,366.8z M110.8,358.3C110.8,358.3,110.8,358.3,110.8,358.3c0,0.1,0,0.2,0,0.2s0,0.1,0,0.1s0,0.1,0,0.1
			c-0.1,0.4-0.3,0.8-0.5,1s-0.5,0.5-0.7,0.6s-0.5,0.2-0.8,0.3s-0.5,0-0.6,0s-0.2-0.1-0.3-0.2s0.1-0.1,0.3-0.2
			c0.2-0.1,0.4-0.3,0.7-0.5s0.4-0.5,0.6-0.7s0.4-0.5,0.6-0.8s0.3-0.4,0.4-0.5s0.2-0.1,0.3-0.1S110.8,357.9,110.8,358.3z"/>
		<path d="M109.7,374.3c0-0.7,0.1-1.4,0.4-2.1s0.6-1.3,1-2s0.9-1.2,1.4-1.7s1.1-1,1.6-1.4c0-0.2,0.1-0.3,0.1-0.5s0.1-0.3,0.1-0.5
			v-0.1c-0.1-0.2-0.1-0.5-0.1-0.9s0-0.7,0.1-1s0.1-0.6,0.2-0.9s0.1-0.4,0.2-0.4c0.2,0,0.3,0,0.4,0.1s0.1,0.2,0.1,0.4
			c0,0.4,0,0.8,0.1,1.3s0.1,0.9,0.1,1.3v0.2c0.6-0.3,1.1-0.6,1.7-0.8s1.2-0.3,1.9-0.3c0.1,0,0.1,0,0.2,0s0.2,0,0.2,0
			s0.1,0.1,0.2,0.1s0.1,0.1,0.1,0.2c0,0.1-0.1,0.2-0.2,0.3s-0.2,0.1-0.3,0.1c-0.1,0-0.3,0.1-0.6,0.1s-0.5,0.1-0.9,0.2
			s-0.6,0.2-0.9,0.3s-0.6,0.2-0.9,0.4s-0.5,0.3-0.7,0.5s-0.3,0.3-0.3,0.5c-0.1,0.4-0.1,0.7-0.1,1.1s0,0.8,0,1.2s-0.1,0.8-0.2,1.1
			s-0.3,0.7-0.6,1l-2.2,2.4c-0.1,0.1-0.2,0.2-0.3,0.3s-0.3,0.2-0.4,0.3s-0.3,0.2-0.4,0.2s-0.3,0.1-0.4,0.1c-0.2,0-0.3-0.1-0.4-0.2
			s-0.2-0.2-0.2-0.4s-0.1-0.3-0.1-0.4S109.7,374.4,109.7,374.3z M110.5,374.3c0,0,0,0.1,0,0.1s0,0.1,0,0.1l0,0c0.1,0,0.1,0,0.2-0.1
			s0.2-0.1,0.3-0.2s0.2-0.2,0.3-0.3c0.4-0.4,0.7-0.7,1-1s0.6-0.6,0.8-1s0.4-0.7,0.5-1.1s0.2-0.9,0.2-1.4v-0.9
			c-0.4,0.2-0.8,0.6-1.2,1s-0.8,0.9-1.1,1.5s-0.6,1.1-0.8,1.6S110.5,373.8,110.5,374.3L110.5,374.3z M114.7,361.5
			c0-0.2,0.1-0.3,0.2-0.4s0.3-0.2,0.4-0.2c0.1,0,0.2,0,0.3,0.1s0.2,0.2,0.2,0.3c0,0.2-0.1,0.3-0.2,0.4s-0.3,0.2-0.4,0.2
			c-0.1,0-0.2,0-0.3-0.1S114.7,361.6,114.7,361.5z"/>
		<path d="M127.8,365.3c-0.1,0-0.2,0.1-0.3,0.1s-0.2,0-0.3,0s-0.2,0-0.3,0s-0.2,0-0.3,0.1c-0.2,0-0.3,0-0.4,0s-0.1-0.1-0.1-0.2
			s0.1-0.2,0.2-0.3s0.2-0.2,0.4-0.3s0.3-0.1,0.4-0.2s0.3,0,0.4,0c-0.1-0.2-0.1-0.4,0-0.5s0.2-0.2,0.4-0.2c0.1,0,0.2,0,0.3,0
			s0.2,0.1,0.2,0.1c0.2-0.1,0.4-0.3,0.7-0.5s0.6-0.5,0.9-0.8s0.6-0.5,0.9-0.7s0.4-0.3,0.5-0.3c0,0,0.1,0,0.1,0s0.1,0,0.2,0
			s0.1,0,0.2,0.1s0.1,0.1,0.1,0.1v0.8c-0.1,0.3-0.2,0.6-0.2,0.9s-0.1,0.6-0.2,0.8s-0.1,0.6-0.1,0.8s0,0.6,0,0.9c0.2,0,0.4,0,0.7-0.1
			s0.5-0.2,0.8-0.3s0.5-0.2,0.8-0.4s0.4-0.2,0.6-0.3c0,0,0.1-0.1,0.2-0.1s0.2-0.1,0.3-0.2s0.2-0.1,0.3-0.2s0.1-0.1,0.2-0.1
			s0.1-0.1,0.2-0.1s0.1-0.1,0.2-0.1c0,0,0.1,0,0.1,0s0.1,0.1,0.1,0.1s0.1,0.1,0.1,0.2s0,0.1,0,0.1c0,0.1,0,0.2-0.1,0.4
			s-0.2,0.2-0.3,0.3s-0.3,0.2-0.4,0.3s-0.2,0.2-0.3,0.2c-0.1,0-0.3,0.1-0.5,0.2s-0.5,0.2-0.7,0.3s-0.5,0.2-0.7,0.3s-0.4,0.2-0.5,0.2
			c0,0-0.1,0-0.2,0s-0.2,0-0.3,0.1s-0.2,0.1-0.3,0.1s-0.1,0-0.2,0c-0.1,0-0.2,0.1-0.2,0.2s-0.1,0.2-0.2,0.2s-0.1,0.2-0.2,0.2
			s-0.2,0.1-0.4,0.1c0,0-0.1,0-0.1-0.1s-0.1-0.1-0.2-0.1c-0.3-0.2-0.5-0.4-0.7-0.6s-0.4-0.3-0.5-0.5s-0.3-0.4-0.5-0.6
			S128,365.5,127.8,365.3z M128.9,364.6c0.1,0.2,0.2,0.3,0.2,0.5s0.2,0.3,0.3,0.5s0.2,0.3,0.4,0.4s0.3,0.2,0.5,0.2
			c0-0.2,0.1-0.4,0.1-0.6s0.1-0.5,0.1-0.8s0.1-0.5,0.2-0.8s0.1-0.5,0.2-0.7h-0.2c-0.2,0.1-0.4,0.3-0.5,0.4c-0.2,0.1-0.3,0.2-0.5,0.3
			s-0.3,0.2-0.4,0.3c0,0,0,0-0.1,0.1s0,0-0.1,0c0,0-0.1,0.1-0.2,0.1S128.9,364.6,128.9,364.6z M130.9,363
			C130.8,363,130.8,363,130.9,363c-0.1,0.1,0,0.2,0,0.2C130.9,363.1,130.9,363.1,130.9,363C130.9,363,130.9,363,130.9,363z"/>
		<path d="M132.5,362.7c0-0.1,0.1-0.2,0.3-0.3s0.2-0.2,0.3-0.2c0.6,0,1.1-0.1,1.7-0.1c0.5,0,0.9-0.1,1.4-0.1c0-0.1,0.1-0.2,0.1-0.3
			c0,0,0-0.1,0.1-0.3s0.1-0.3,0.2-0.5s0.2-0.4,0.2-0.6s0.1-0.3,0.2-0.4c0.1-0.2,0.2-0.4,0.4-0.7s0.4-0.5,0.6-0.8s0.4-0.5,0.7-0.6
			s0.5-0.3,0.7-0.3c0.1,0,0.2,0,0.3,0.1s0.1,0.1,0.1,0.2s0,0.2,0.1,0.3s0,0.2,0,0.2c0,0.6-0.1,1.2-0.2,1.8c-0.2,0.6-0.4,1.1-0.6,1.6
			c0.4,0,0.7,0,1.1,0c0.4,0,0.8,0,1.2,0s0.8,0.1,1.2,0.3l-0.3,0.3l-0.3,0.1c-0.2,0-0.5,0-0.8,0.1s-0.7,0.1-1.1,0.1s-0.8,0.1-1.2,0.1
			c-0.1,0-0.2,0-0.3,0.1c-0.2,0.2-0.3,0.5-0.5,0.7c-0.4,0.5-0.8,0.9-1.3,1.3c0,0,0,0.1,0,0.2s0,0.2,0,0.2v0c0,0.2,0.1,0.4,0.2,0.6
			s0.3,0.2,0.4,0.3s0.4,0.1,0.6,0.1s0.4,0,0.6,0c0.1,0,0.3-0.1,0.5-0.2s0.4-0.2,0.6-0.4s0.4-0.3,0.6-0.4s0.4-0.2,0.5-0.2
			s0.2,0,0.2,0.1s0.1,0.2,0.1,0.3c0,0.2-0.1,0.4-0.4,0.6s-0.6,0.4-0.9,0.6s-0.7,0.3-1,0.4s-0.5,0.2-0.6,0.2c-0.4,0.1-0.7,0.1-1,0
			s-0.6-0.2-0.8-0.3s-0.4-0.4-0.6-0.6s-0.2-0.5-0.3-0.7l0.2-1.2c0,0,0.1-0.1,0.1-0.1c0-0.1,0.1-0.3,0.1-0.5s0.1-0.5,0.2-0.8
			c0,0,0,0,0-0.1c-0.3,0-0.7,0-1,0c-0.6,0-1.1,0-1.6,0c0,0-0.1,0-0.2,0s-0.2,0-0.3-0.1s-0.1-0.1-0.2-0.1S132.4,362.8,132.5,362.7z
			 M136.7,363.2L136.7,363.2l0.2-0.1c0,0,0.1-0.1,0.1-0.2l-0.2,0C136.7,363.1,136.7,363.2,136.7,363.2z M138.7,359.4
			c-0.1,0-0.2,0.1-0.4,0.3s-0.3,0.4-0.4,0.6s-0.2,0.4-0.3,0.6s-0.2,0.3-0.2,0.4c0,0.1-0.1,0.2-0.2,0.4c0,0.1-0.1,0.2-0.1,0.3l0.6,0
			c0,0,0-0.1,0.1-0.1c0.1-0.2,0.1-0.2,0.2-0.3c0-0.1,0.1-0.3,0.2-0.5s0.2-0.4,0.2-0.6s0.1-0.4,0.2-0.6s0.1-0.2,0.1-0.3V359.4z"/>
		<path d="M140.4,366.4c0,0,0-0.1,0-0.1s0-0.1,0-0.2s0-0.1,0-0.2s0-0.1,0-0.1v-0.1v-0.1l0.2-1.1c0.2-0.4,0.4-0.8,0.6-1.2
			s0.5-0.7,0.7-1s0.6-0.5,1-0.7s0.8-0.3,1.3-0.3c0.1,0,0.2,0,0.4,0.1s0.3,0.1,0.5,0.2s0.3,0.2,0.4,0.3s0.2,0.2,0.3,0.3
			c0.4-0.1,0.6-0.1,0.8-0.1s0.3,0,0.4,0s0.2,0,0.4-0.1s0.3-0.1,0.6-0.2c0.2-0.1,0.4-0.1,0.6-0.1c0.1,0,0.2,0,0.2,0.1
			s0.1,0.2,0.1,0.2c0,0.1,0,0.2-0.1,0.3s-0.2,0.2-0.3,0.2l-2.2,0.5l-0.2,0.1c0,0.6-0.2,1.2-0.4,1.8s-0.6,1.1-1.1,1.5s-1,0.8-1.5,1
			s-1.2,0.4-1.8,0.4c0,0-0.1,0-0.2,0s-0.2,0-0.2,0c-0.3-0.1-0.4-0.3-0.5-0.6S140.4,366.7,140.4,366.4z M141.5,366.8
			c0,0.1,0.1,0.1,0.1,0.1s0.1,0,0.2,0c0.4,0,0.9-0.1,1.3-0.3s0.8-0.5,1.2-0.8s0.7-0.7,0.9-1.2s0.3-0.9,0.3-1.3c-0.4,0-0.8,0-1.1-0.1
			s-0.7-0.1-1.1-0.1h0l-1.5,1.5c-0.1,0.1-0.1,0.2-0.2,0.3s-0.1,0.3-0.1,0.5s0,0.3-0.1,0.5s0,0.3,0,0.4c0,0,0,0.1,0,0.2
			S141.5,366.7,141.5,366.8z"/>
		<path d="M148.9,366.8c0-0.4,0-0.8,0.1-1.2s0.2-0.8,0.4-1.1c0.1-0.4,0.2-0.8,0.4-1.1s0.3-0.6,0.4-0.9s0.3-0.5,0.4-0.6
			s0.3-0.2,0.4-0.2s0.3,0,0.3,0.1s0.1,0.2,0.1,0.4v0.1l-0.9,2.1c0,0,0,0.1-0.1,0.1s-0.1,0.1-0.1,0.1v0.1c0,0.1-0.1,0.2-0.1,0.3
			s-0.1,0.3-0.1,0.4s-0.1,0.3-0.1,0.4s-0.1,0.2-0.1,0.3c0,0.1,0,0.2-0.1,0.3s0,0.2,0,0.2c0,0,0,0.1,0,0.1s0,0.1,0.1,0.1
			c0.4-0.2,0.9-0.4,1.4-0.8s1-0.8,1.5-1.2s0.9-0.9,1.3-1.4s0.6-1,0.8-1.4c0,0,0.1,0,0.2-0.1s0.2,0,0.2,0c0,0,0,0,0,0s0,0,0,0
			c0.1,0,0.2,0.1,0.3,0.2s0.1,0.2,0.1,0.3c0,0,0,0,0,0.1s0,0.1,0,0.1c-0.2,0.5-0.4,1-0.5,1.4s-0.2,0.9-0.2,1.5c0,0.2,0,0.4,0,0.5
			s0.1,0.3,0.1,0.6c0,0.1,0,0.1,0.1,0.1s0.1,0,0.1,0c0.4,0,0.7-0.1,1.1-0.4s0.7-0.6,1-1s0.5-0.8,0.7-1.2s0.3-0.8,0.3-1.1
			c0-0.2,0-0.3,0-0.5s0-0.3,0-0.5c0-0.2,0-0.3,0.1-0.4s0.2-0.2,0.4-0.2c0.1,0,0.2,0,0.3,0.1s0.2,0.1,0.3,0.2s0.2,0.2,0.3,0.2
			s0.2,0.1,0.3,0.2c0.3,0,0.5,0,0.7,0s0.3,0,0.4,0s0.2,0,0.2,0s0.1,0,0.2-0.1s0.2-0.1,0.3-0.2s0.3-0.2,0.6-0.3c0,0,0,0,0.1,0
			s0.1,0,0.1,0c0.1,0,0.2,0,0.3,0.1s0.1,0.2,0.1,0.3c0,0.1,0,0.2-0.1,0.3s-0.1,0.1-0.2,0.2s-0.2,0.1-0.3,0.1s-0.2,0.1-0.3,0.1
			c-0.3,0.1-0.5,0.2-0.6,0.2s-0.3,0.1-0.3,0.1s-0.1,0-0.2,0s-0.1,0-0.2,0s-0.2,0-0.4,0s-0.4,0-0.6,0c0,0-0.1,0-0.1,0s-0.1,0-0.1,0.1
			c-0.1,0.5-0.2,1.1-0.5,1.6s-0.6,1-1,1.5s-0.9,0.8-1.4,1.1s-1.1,0.4-1.6,0.4c-0.1,0-0.2,0-0.3-0.1s-0.2-0.2-0.3-0.3
			s-0.1-0.3-0.2-0.4s-0.1-0.2-0.1-0.3c0,0,0-0.1,0-0.3s0-0.3-0.1-0.4s0-0.3-0.1-0.4s0-0.2,0-0.3c-0.2,0.2-0.5,0.5-0.8,0.8
			s-0.7,0.6-1.1,0.9s-0.8,0.5-1.2,0.7s-0.8,0.3-1.1,0.3c-0.3,0-0.5-0.1-0.6-0.3S148.9,367,148.9,366.8z"/>
		<path d="M162.1,367.4l0.6-3.5v-0.5l0.4-2.3c0,0,0.1-0.1,0.2-0.1s0.2,0,0.2,0c0.1,0,0.2,0,0.3,0.1s0.2,0.1,0.2,0.3v1.2
			c0,0,0.1-0.1,0.2-0.2s0.2-0.2,0.4-0.3s0.3-0.2,0.4-0.3s0.2-0.2,0.2-0.2c0.1-0.1,0.3-0.2,0.5-0.3s0.4-0.1,0.5-0.1
			c0.3,0,0.6,0.1,0.8,0.3s0.3,0.5,0.3,0.8c0,0,0,0,0,0s0,0,0,0v0.1l-0.7,3v1.4c0.4,0,0.7-0.1,1.1-0.2s0.8-0.3,1.1-0.6s0.7-0.5,1-0.8
			s0.6-0.6,0.8-0.8h0.1c0.1,0,0.1,0,0.2,0.1s0.1,0.1,0.1,0.2c0,0.3-0.1,0.5-0.3,0.8s-0.4,0.5-0.7,0.7s-0.6,0.4-0.9,0.6
			s-0.7,0.4-1,0.5s-0.7,0.3-1,0.3s-0.6,0.1-0.8,0.1s-0.4,0-0.5-0.1s-0.2-0.2-0.3-0.3s-0.1-0.3-0.1-0.4s0-0.3,0-0.5v-0.2l0.7-3.4
			v-0.6c-0.3,0-0.6,0.1-0.8,0.4s-0.5,0.5-0.7,0.9s-0.4,0.7-0.6,1.1s-0.3,0.7-0.3,0.9c0,0.1-0.1,0.2-0.1,0.4s-0.1,0.4-0.1,0.7
			s-0.1,0.5-0.1,0.7s-0.1,0.4-0.1,0.5c0,0.1,0,0.1-0.1,0.2s-0.1,0.1-0.2,0.1s-0.1,0-0.2,0s-0.1,0-0.2,0c-0.1,0-0.2,0-0.3-0.1
			S162.1,367.6,162.1,367.4L162.1,367.4z"/>
		<path d="M170.4,364.1c0-0.1,0-0.2,0.1-0.3s0.1-0.3,0.2-0.5s0.1-0.3,0.2-0.5s0.1-0.3,0.1-0.3c0.1-0.2,0.1-0.3,0.2-0.4
			s0.2-0.1,0.4-0.1c0.2,0,0.3,0.1,0.4,0.2s0.1,0.3,0.1,0.5c0,0.3,0,0.6-0.1,0.8s-0.2,0.5-0.3,0.8s-0.2,0.5-0.3,0.8s-0.1,0.6-0.1,1
			c0,0,0,0.1,0,0.2s0,0.2,0,0.3s0,0.2,0.1,0.2s0.1,0.1,0.1,0.1c0.3,0,0.6-0.1,0.9-0.2s0.6-0.3,0.9-0.4s0.6-0.4,0.9-0.6
			s0.5-0.4,0.7-0.5c0.1-0.1,0.1-0.1,0.2-0.2s0.1-0.1,0.1-0.2s0.1-0.1,0.1-0.1s0.1-0.1,0.3-0.1c0.2,0,0.3,0,0.4,0.1s0.1,0.2,0.1,0.3
			c0,0.1,0,0.1,0,0.2s0,0.1-0.1,0.2c0,0-0.1,0.1-0.1,0.1s-0.2,0.1-0.2,0.2s-0.2,0.1-0.2,0.2s-0.1,0.1-0.2,0.1c0,0,0,0-0.1,0
			s-0.1,0-0.1,0c0,0,0,0,0,0s0,0,0,0c-0.2,0.2-0.5,0.4-0.8,0.6s-0.6,0.4-0.9,0.5s-0.6,0.3-1,0.4s-0.7,0.2-1,0.2
			c-0.3,0-0.5-0.1-0.6-0.2s-0.3-0.3-0.3-0.6s-0.1-0.5-0.1-0.7s0-0.5,0-0.7L170.4,364.1z M171.3,359.5c0-0.2,0-0.4,0.1-0.4
			s0.2-0.1,0.4-0.1c0.1,0,0.2,0,0.3,0.1s0.2,0.1,0.2,0.3s-0.1,0.3-0.2,0.4s-0.3,0.2-0.4,0.2s-0.2,0-0.3-0.1S171.3,359.6,171.3,359.5
			z"/>
		<path d="M176.7,367.7c0,0,0-0.1,0-0.2s0-0.2,0-0.2c0-0.4,0.1-0.7,0.2-1.1s0.3-0.7,0.5-1l0.9-2.5l0.9-3.4l0.8-1.5
			c0-0.1,0.1-0.1,0.1-0.1s0.1,0,0.2,0c0.2,0,0.4,0.1,0.5,0.3s0.1,0.4,0.1,0.6c0,0.7-0.1,1.4-0.3,2s-0.5,1.2-0.8,1.8
			c0.2-0.1,0.4-0.2,0.6-0.3s0.4-0.1,0.7-0.1c0.3,0,0.6,0.1,0.7,0.2s0.4,0.3,0.6,0.5c0,0,0,0.1,0,0.2s0,0.2,0,0.2
			c0,0.4-0.1,0.7-0.2,1s-0.4,0.6-0.6,0.9s-0.5,0.5-0.9,0.7s-0.6,0.4-0.9,0.5v0.1c0,0.1,0,0.2,0.1,0.3s0.2,0.2,0.2,0.2
			s0.2,0.1,0.3,0.1s0.2,0,0.3,0c0.3,0,0.5,0,0.8,0s0.6-0.1,0.8-0.1s0.5-0.1,0.8-0.2s0.5-0.2,0.7-0.4c0.1-0.1,0.2-0.2,0.3-0.3
			s0.2-0.3,0.3-0.5s0.2-0.3,0.3-0.4s0.2-0.2,0.2-0.2c0.1,0,0.2,0.1,0.3,0.2s0.1,0.2,0.1,0.4c0,0,0,0,0,0.1s0,0.1,0,0.1
			c-0.2,0.5-0.5,0.9-0.8,1.2s-0.6,0.6-1,0.7s-0.8,0.3-1.2,0.4s-1,0.1-1.5,0.1c-0.5,0-0.9-0.1-1.2-0.3s-0.6-0.5-0.8-0.9
			c0,0,0-0.1-0.1-0.2s-0.1-0.2-0.1-0.2s-0.1-0.1-0.1-0.2s-0.1-0.1-0.2-0.1l-0.8,1.8c0,0.1-0.1,0.1-0.2,0.2s-0.2,0-0.3,0
			c-0.1,0-0.1,0-0.2,0S176.7,367.8,176.7,367.7z M179,364.4c0,0,0,0.1,0.1,0.2s0.1,0.2,0.1,0.2s0.1,0.2,0.1,0.2s0.1,0.1,0.1,0.1
			s0.1,0,0.2,0s0.1-0.1,0.2-0.1s0.1-0.1,0.2-0.1s0.1-0.1,0.1-0.1c0,0,0.1-0.1,0.2-0.2s0.2-0.2,0.3-0.3s0.2-0.2,0.3-0.3
			s0.2-0.2,0.2-0.2c0,0,0-0.1,0.1-0.1s0.1-0.1,0.1-0.2s0.1-0.1,0.1-0.2s0-0.1,0.1-0.1c0,0,0,0,0,0s0,0,0,0c0,0,0-0.1,0-0.1
			s0-0.1-0.1-0.1H181c-0.1,0-0.3,0-0.4,0s-0.2,0.1-0.4,0.1c0,0-0.1,0.1-0.2,0.2s-0.2,0.2-0.3,0.3s-0.2,0.2-0.3,0.3s-0.2,0.2-0.2,0.2
			c0,0-0.1,0.1-0.1,0.2S179,364.3,179,364.4z"/>
	</g>
</g>
</svg>
